<svg version="1" xmlns="http://www.w3.org/2000/svg" width="1024" height="1024" viewBox="0 0 768.000000 768.000000"><path d="M62 25.2c-11 5.1-23 22.5-28.4 41.1-4.7 16.2-5.9 29.3-5.3 58.2.7 33.4 3.7 56.2 11.3 85.6l3.4 13.5-5 10.8c-9.7 20.7-13.9 39.9-14.7 66.6-.8 26 2.5 45.5 10.8 65.5 8.1 19.5 24.6 36.7 39.3 40.9 11.5 3.4 28.6.9 42-6 3.7-2 7.2-3.2 7.6-2.7.4.4 6.6 9.6 13.9 20.3 7.2 10.7 15.4 22.8 18.3 26.8l5.2 7.3-3.8 21.7C139.5 573 131.2 614.5 121.4 650c-9.5 34.7-12 40.5-24.4 54.4-9.2 10.3-11.1 13.6-11.7 20.3-.6 7.1.9 13.2 4.3 17.3 2.3 2.7 3.2 3 8 3 7.6 0 12.4-2.8 22.6-13.1 9.2-9.3 18.5-21.3 31.3-39.9 9.1-13.5 13.3-18 27.5-30.3 18.3-15.8 26.6-23.7 36.8-35.1 12.8-14.2 29.1-33.9 37.1-44.8l6.3-8.4 35.5 35.5 35.6 35.6-2.3 12c-5.2 27.2-11.8 49.7-19.7 66.7l-4.5 9.6 6.3 6.1c6.6 6.3 8.8 7.2 10.9 4.6.7-.9 10.1-8.6 20.9-17.3 10.8-8.6 24.4-19.9 30.4-24.9 5.9-5.1 11.2-9.3 11.6-9.3.5 0 3.1 1.9 5.7 4.3 6.7 5.9 28.9 24.5 34.4 28.7 3.9 3 11.2 9 21.4 17.6 1.5 1.3 3.3 2.4 3.8 2.4 1.5 0 13.8-11.1 13.8-12.5 0-.7-1.8-5-4-9.7-7.1-15.3-13.8-37.9-19.5-65.9l-2.5-12.6 10.8-10.4c15.5-15 33.9-33.5 48-48.1l12.2-12.7 7 9.3c20.5 27.1 46.2 55.7 64.3 71.3 22.7 19.6 26.4 23.3 33.8 34.1 19.7 29 37.9 50.1 47.4 55.1 4.7 2.5 13 2.8 16.2.6 3.6-2.5 5.6-9.4 5.2-17.8-.5-8.5-.7-8.9-13.5-24-4.4-5.3-9.2-12-10.7-15-3-6.1-11.6-35.3-17.2-58.2-7.2-29.3-11.9-54-28-144.3l-5.5-31.1 10.1-14.2c10.8-15.2 26.6-38.6 27.2-40.3.2-.5 4.1.9 8.8 3.2 9.9 4.8 19.4 7.2 29 7.2 38.7 0 67.3-54 62-116.8-2-23.2-6.3-40-14.9-58.5l-4.6-9.9 3.2-13.1c6.4-26.2 9.3-44.5 11.2-69.7 3.7-49.9-3.5-85.4-21.4-105.9-8-9.2-12.4-11.4-22.7-11.9-10.2-.5-14.1 1.1-20.9 8.2-10.4 10.9-15.9 23.5-18 41-1.3 10.9 0 29.4 2.6 38.6 1.8 6.3 6.4 15.9 9.4 19.7 1.8 2.3 2 4.1 2 15.4 0 7.1-.2 12.9-.5 12.9s-3.3-2.2-6.8-4.8c-3.4-2.7-8.7-6.4-11.7-8.4-12.5-8-17.4-11-19.4-11.9-1.2-.5-3-1.5-4.1-2.1-9.4-6.1-34.5-18.7-53-26.7-2.7-1.2-6.5-2.9-8.2-3.7-1.8-.8-4.7-2.1-6.5-2.8-1.8-.8-4.5-2-6-2.6l-2.7-1.3 5.1-5.6c7.4-8 14.4-19.2 15.9-25.3 3.3-13.2.2-27.5-7-32.4-4.7-3.2-6.2-3.1-14.7 1.2-10.8 5.4-26.8 17.9-38.6 30.3C505.9 69 500.9 74 500.6 74c-.5 0-6-2.5-20.8-9.4-4.3-2-11.3-5.2-15.5-7.2-28.8-13.3-47.2-23.1-56.5-30-3.3-2.4-6.6-4.4-7.4-4.4-.8 0-2.3 3.3-4 8.6l-2.6 8.6 4 4.2c18.8 19.6 35.8 49.9 50.7 90.4l3.8 10.2-8.1 16.8c-9.6 19.9-12.8 27.8-27.9 69.2-15.7 42.9-32 84.6-32.8 83.8-1.3-1.3-23.6-59.7-38-99.3-9.5-26.1-15.6-40.7-24.3-58.3l-6.1-12.3 4.9-12.7c15.6-40.8 30.8-67.6 49.9-88 1.7-1.8 3.1-4.1 3.1-4.9 0-3.1-4.5-15.5-5.7-16-.7-.3-3 .8-5 2.4-2.1 1.5-4.7 3.3-5.8 4-1.1.7-4.9 3-8.5 5.1-9.7 5.9-20.4 11.2-52.5 26.2-3.8 1.8-11.7 5.5-17.4 8.1-5.7 2.7-10.7 4.9-11.1 4.9-.5 0-3.6-3-7-6.8C241.8 47.3 216.6 29 207.4 29c-4 0-9.8 6.4-11.8 13-4.6 15.4.3 29.9 16.3 48 2.9 3.3 3.7 4.8 2.9 5.7-.6.7-1.6 1.3-2.2 1.3-1.1 0-11.8 4.4-24.5 10.2-29.6 13.3-65.6 33.5-82.5 46.4l-7.1 5.3-.8-12-.8-12.1 3-4.6c8.1-12.7 11-23 11.8-41.7.9-21.5-2.2-34.5-11.6-48.7C91.5 26.7 85.6 23 74 23c-5.5.1-8.7.6-12 2.2zm396.5 45.3c9.9 4.8 20.7 10 24 11.6 9.3 4.4 9.1 4 4.7 9.5-2.1 2.7-5.1 6.8-6.7 9.2l-2.8 4.3-2.6-3.3c-4.9-6.2-19.3-22.3-29-32.2-5.3-5.4-8.7-9.4-7.6-8.9 1.1.6 10.1 5 20 9.8zm-134.6-3.8c-10.2 10.7-16.7 17.7-24.8 27.3-4.5 5.2-8.5 9.5-9 9.5-.6 0-3.9-3.9-7.4-8.7l-6.5-8.7 3.6-1.7c11.2-5.2 31.8-15.2 39.2-18.9 4.7-2.4 8.9-4.4 9.5-4.4.5-.1-1.6 2.5-4.6 5.6zM251.4 126c4.9 5.1 10.6 14.5 10.6 17.5 0 .6-1.1 2.6-2.4 4.5-14.4 21.4-36.5 66.4-49.4 100.5-16.3 43.4-24 71.5-35.7 130l-7.2 36-5.6-11.1c-3.1-6.2-7.7-15.8-10.2-21.4l-4.6-10.2 4.5-9.2c9.5-19.5 12.7-34.7 13.3-64.6.4-16.7.1-24.6-1.2-35-2.2-17.6-2.5-18.2-7.2-17.8-4.4.3-4.2-.7-2.4 17.7 3.5 33.8-.5 64.9-10.7 84.5l-3.6 6.8-2.8-7.3C121 306 105.5 244.8 102.4 211l-.7-6.9 4.4-5.8c5.5-7.1 25.2-27.2 33.9-34.5 11.1-9.3 25.6-19.8 36.2-26.3.9-.5 4.8-2.9 8.5-5.1 3.7-2.3 10.2-5.9 14.3-8 4.1-2.1 8-4.2 8.7-4.7.7-.5 6.3-3.3 12.4-6.2l11.2-5.4 7.2 6c4 3.3 9.8 8.6 12.9 11.9zm305.6-7.7c45 22.8 79.6 49.3 104.4 80.1 5.5 6.8 5.4 4.3 1 31.6-5.3 32.5-14.1 66.7-25.4 99-3.4 9.6-6.6 19-7.2 20.7-.6 1.8-1.4 3.3-1.8 3.3-.4 0-2.1-2.6-3.8-5.8-9.6-18-13.4-43.4-11.1-75.2.7-9.6 1.3-19.5 1.3-22l.1-4.5h-8l-1.8 11.5c-2.8 17.6-2.8 54.5.1 70 2.7 14.5 6.4 26 11.8 36.6l4.2 8.2-6.7 14.3c-13.6 29.3-14.1 30-15.5 21.4-2.6-15.3-13.5-68-17.2-82.5-7.6-30.6-18.7-64-32.1-97-6.6-16.2-25.7-53.9-35.7-70.5l-8.4-14 1.5-3.5c3.1-7.5 8.1-13.7 18.6-22.6 10.3-8.8 11-9.2 13.5-8.1 1.5.7 9.7 4.7 18.2 9zM302.1 330c7.1 39.3 15 82 17.5 94.7L324 448l-2.6 5.2c-11.8 23.3-45.2 77.8-57.8 94.3l-3.4 4.5-12.9-16.3c-7.2-8.9-15-19-17.5-22.4l-4.6-6.2 4.5-15.3c13-45.2 23.7-90.6 40.9-173.8 3.6-17.3 8.6-40.7 11.2-52l4.6-20.4 1.3 6.4c.8 3.6 7.2 38.7 14.4 78zm184.2-61.3c2.6 11.5 7.9 36.1 11.7 54.8 14.7 71.1 27.4 124.9 38.5 163.4 3.1 10.7 5.4 20 5.1 20.7-1.4 3.8-32.8 42.9-34.4 42.9-2.9 0-34-48.4-52.4-81.4-9.7-17.4-10.9-20.1-10.5-23.6.2-2.2 3.5-20.9 7.4-41.5 3.9-20.6 12-64.2 17.9-96.8 5.9-32.5 11.1-59.2 11.4-59.2.4 0 2.8 9.3 5.3 20.7zM82.1 324.5c4.2 8.8 11 22.3 15.3 29.9 4.2 7.7 7.6 14.1 7.6 14.3 0 .9-3.1.1-6.8-1.7-13.7-6.6-24.5-30.5-26.5-59l-.5-6.5 1.6 3.5c.9 1.9 5.1 10.7 9.3 19.5zm612.5-5.6c-2.6 16.6-8.9 32.4-16.2 40.9-3.5 4.1-13.8 10.2-15.1 8.9-.4-.4-.1-1.8.7-3 4.1-6.6 20.3-38.1 25.5-49.6 5.2-11.7 6-12.9 6.3-10.1.2 1.8-.3 7.6-1.2 12.9zM332.9 487c2.8 11.8 6.7 27.6 8.6 35 6.2 23.5 6 21.9 3.6 37.5-3.2 20.4-11.1 66.8-11.7 68.4-.3 1-3.2-1.2-9-7-11-10.8-36.4-37.6-47.5-50.1l-8.6-9.7 11.7-17.8c12.8-19.5 27.3-43.3 39.5-64.6 4.3-7.5 7.9-13.6 8.1-13.5.1.2 2.5 10 5.3 21.8zm123 5.5c11.1 18.7 22.8 37.5 32.9 52.8l10.5 15.8-2 2.2c-17.5 19.9-62 66.3-62.8 65.5-.6-.5-7.2-38.2-11-62.4l-3.4-22 4-15c4.3-16 9.8-38.3 13-52.9 1.1-5 2.2-9.7 2.5-10.5.3-.8 2.6 2.3 5.7 8 2.9 5.2 7.7 13.5 10.6 18.5zm112.6 93c7 17.6 18.6 43 27.2 59.4 5.1 9.7 7 14 5.7 13.3-2.4-1.3-38.3-37.7-48.5-49.2-8.1-9.1-23.2-27.3-31.8-38.2l-5.2-6.7 6.8-7.4c3.7-4 11.1-12.3 16.3-18.4l9.4-11 7.7 23.1c4.2 12.7 9.8 28.5 12.4 35.1zm-331.1-37.1l13.8 15.7-2.6 3.7c-11.8 17-50.9 60.5-75.4 83.8l-10.2 9.7 5.7-10.4c16.3-30 30.1-62.4 42.8-100.9 3.7-11.3 7-20.9 7.3-21.4.3-.5 1.5.2 2.6 1.6 1.2 1.4 8.3 9.6 16 18.2zM388 661.8l3.5 7.4-3.8 3.4-3.8 3.5-3.7-3.2c-2-1.8-3.7-3.6-3.7-3.9 0-1.5 7.1-15.7 7.5-15.2.3.4 2.1 4 4 8zm-14 22.3c0 .4-2.8 3.1-6.2 6.1l-6.2 5.3 2.8-4.5c1.5-2.5 3.5-6 4.3-7.7 1.6-3.1 1.8-3.2 3.5-1.6 1 .9 1.8 1.9 1.8 2.4zm27.2 3.4c4 7.1 3.3 7.2-4.1.6-3.8-3.4-4.3-4.2-3.2-5.5 2.3-2.7 3.6-1.8 7.3 4.9z"/></svg>